HIERARCHY
ROOT Hips
{
    OFFSET 0.000000 0.000000 0.000000
    CHANNELS 6 Xposition Yposition Zposition Zrotation Xrotation Yrotation
    JOINT Spine
    {
        OFFSET -0.000000 14.517291 0.000000
        CHANNELS 3 Zrotation Xrotation Yrotation
        JOINT Spine1
        {
            OFFSET -0.000000 37.558300 0.000000
            CHANNELS 3 Zrotation Xrotation Yrotation
            JOINT Neck
            {
                OFFSET -0.000000 37.404057 3.400369
                CHANNELS 3 Zrotation Xrotation Yrotation
                JOINT Head
                {
                    OFFSET -0.000000 24.785618 -3.540803
                    CHANNELS 3 Zrotation Xrotation Yrotation
                    End Site
                    {
                        OFFSET -0.000000 35.408028 0.000000
                    }
                }
            }
            JOINT LeftShoulder
            {
                OFFSET 6.992933 33.973492 -0.192664
                CHANNELS 3 Zrotation Xrotation Yrotation
                JOINT LeftArm
                {
                    OFFSET 21.527611 0.000000 0.000000
                    CHANNELS 3 Zrotation Xrotation Yrotation
                    JOINT LeftForeArm
                    {
                        OFFSET 56.353916 0.000000 0.000000
                        CHANNELS 3 Zrotation Xrotation Yrotation
                        JOINT LeftHand
                        {
                            OFFSET 47.774071 0.000000 0.000000
                            CHANNELS 3 Zrotation Xrotation Yrotation
                            End Site
                            {
                                OFFSET 26.556021 0.000000 0.000000
                            }
                        }
                    }
                }
            }
            JOINT RightShoulder
            {
                OFFSET -7.065357 33.973492 -0.192664
                CHANNELS 3 Zrotation Xrotation Yrotation
                JOINT RightArm
                {
                    OFFSET -21.527611 0.000000 0.000000
                    CHANNELS 3 Zrotation Xrotation Yrotation
                    JOINT RightForeArm
                    {
                        OFFSET -56.353916 0.000000 0.000000
                        CHANNELS 3 Zrotation Xrotation Yrotation
                        JOINT RightHand
                        {
                            OFFSET -47.774071 0.000000 0.000000
                            CHANNELS 3 Zrotation Xrotation Yrotation
                            End Site
                            {
                                OFFSET -26.556021 0.000000 0.000000
                            }
                        }
                    }
                }
            }
        }
    }
    JOINT LeftUpLeg
    {
        OFFSET 17.704014 0.000000 0.000000
        CHANNELS 3 Zrotation Xrotation Yrotation
        JOINT LeftLeg
        {
            OFFSET -0.000000 -81.181816 0.000000
            CHANNELS 3 Zrotation Xrotation Yrotation
            JOINT LeftFoot
            {
                OFFSET -0.000000 -62.821102 0.000000
                CHANNELS 3 Zrotation Xrotation Yrotation
                JOINT LeftToeBase
                {
                    OFFSET -0.000000 -11.507608 26.556021
                    CHANNELS 3 Zrotation Xrotation Yrotation
                    End Site
                    {
                        OFFSET -0.000000 0.000000 7.081605
                    }
                }
            }
        }
    }
    JOINT RightUpLeg
    {
        OFFSET -17.704014 0.000000 0.000000
        CHANNELS 3 Zrotation Xrotation Yrotation
        JOINT RightLeg
        {
            OFFSET -0.000000 -81.181816 0.000000
            CHANNELS 3 Zrotation Xrotation Yrotation
            JOINT RightFoot
            {
                OFFSET -0.000000 -62.821102 0.000000
                CHANNELS 3 Zrotation Xrotation Yrotation
                JOINT RightToeBase
                {
                    OFFSET -0.000000 -11.507608 26.556021
                    CHANNELS 3 Zrotation Xrotation Yrotation
                    End Site
                    {
                        OFFSET -0.000000 0.000000 7.081605
                    }
                }
            }
        }
    }
}
MOTION
Frames:    12
Frame Time:    0.008333
-13.548617    152.455353    -97.671974    1.591703    -6.413569    46.277203    -3.108890    -0.183623    -1.947088    -1.096492    2.241390    -0.627288    -1.405291    5.242702    -19.089142    16.815214    1.464164    -17.642740    5.209455    7.255721    -16.169128    -23.149620    12.206761    -62.657696    -8.159455    -27.960634    -113.522079    -15.009200    -36.464794    -18.446430    2.431609    12.268702    -6.174188    35.885693    17.585419    42.924667    -14.080951    1.825223    31.231630    -27.553051    -3.855632    37.797073    19.267080    -2.589851    -4.796952    -18.546059    40.411427    -20.542038    7.137180    -30.972612    50.668484    0.000000    0.000000    0.000000    -22.583086    -15.555474    -24.733534    10.310782    29.628675    -18.925411    7.178047    6.872783    -8.001576    0.000000    0.000000    0.000000    
-13.571414    152.463287    -97.645775    1.591022    -6.407990    46.308704    -3.102347    -0.184301    -1.949735    -1.108290    2.234982    -0.627939    -1.402947    5.249457    -19.094049    16.810402    1.447674    -17.646423    5.172876    7.262692    -16.140106    -23.184374    12.111526    -62.372036    -7.908311    -28.388678    -113.012047    -15.179411    -36.409554    -18.582952    2.436643    12.259279    -6.183120    35.883766    17.557703    42.934692    -14.061285    1.832443    31.227299    -27.558319    -3.852837    37.783871    19.278801    -2.601234    -4.810802    -18.540913    40.391624    -20.549089    7.114754    -30.961533    50.663879    0.000000    0.000000    0.000000    -22.574757    -15.546615    -24.726156    10.316228    29.625006    -18.975605    7.178720    6.858528    -7.988003    0.000000    0.000000    0.000000    
-13.589448    152.468201    -97.616653    1.595752    -6.404339    46.350132    -3.101172    -0.180330    -1.956630    -1.113792    2.229712    -0.630243    -1.407020    5.264045    -19.107397    16.816532    1.420965    -17.655579    5.136698    7.282062    -16.102184    -23.217361    12.009381    -62.090294    -7.550902    -28.768534    -112.395729    -15.245778    -36.163658    -18.907753    2.435764    12.243075    -6.196163    35.869694    17.567669    42.936409    -14.067102    1.821456    31.233673    -27.539570    -3.845645    37.751812    19.286020    -2.611947    -4.807893    -18.509455    40.392536    -20.574181    7.083443    -30.949596    50.636131    0.000000    0.000000    0.000000    -22.575890    -15.527028    -24.720182    10.335163    29.629158    -18.994392    7.172427    6.827083    -8.009145    0.000000    0.000000    0.000000    
-13.610694    152.469940    -97.588997    1.596354    -6.399489    46.389439    -3.106207    -0.171389    -1.965478    -1.098715    2.214389    -0.633718    -1.427904    5.266301    -19.117138    16.822382    1.414047    -17.661980    5.089073    7.297508    -16.066673    -23.271688    11.890133    -61.791401    -7.362603    -29.130428    -111.895004    -15.382227    -36.154900    -18.994667    2.421788    12.244184    -6.211785    35.864864    17.567556    42.954998    -14.084740    1.796431    31.234310    -27.545002    -3.862436    37.733471    19.301409    -2.625652    -4.815260    -18.503372    40.382378    -20.603821    7.052005    -30.952177    50.625076    0.000000    0.000000    0.000000    -22.571526    -15.516958    -24.705606    10.345743    29.639561    -19.025024    7.193790    6.785761    -8.024395    0.000000    0.000000    0.000000    
-13.629162    152.470703    -97.558487    1.601918    -6.401827    46.426285    -3.073445    -0.098003    -1.979889    -1.143791    2.099144    -0.639415    -1.444602    5.317566    -19.124081    16.859766    1.393197    -17.660507    5.033324    7.346025    -16.005989    -23.318602    11.770207    -61.478676    -7.155860    -29.433157    -111.368591    -15.554508    -36.055660    -19.174816    2.454965    12.279205    -6.233190    35.852875    17.588396    42.966747    -14.122790    1.773205    31.241745    -27.532883    -3.864065    37.713978    19.320297    -2.627561    -4.814912    -18.489002    40.375465    -20.636375    7.037851    -30.942505    50.606895    0.000000    0.000000    0.000000    -22.574364    -15.500976    -24.671219    10.385714    29.653723    -19.069607    7.192258    6.754707    -8.051763    0.000000    0.000000    0.000000    
-13.648086    152.471924    -97.536545    1.606480    -6.391464    46.463688    -3.082148    -0.097481    -1.986888    -1.137217    2.100302    -0.641926    -1.464614    5.320434    -19.135956    16.876837    1.376988    -17.666466    4.985969    7.357905    -15.956403    -23.426105    11.578014    -61.185013    -7.019176    -29.661119    -110.841560    -15.744758    -35.985233    -19.257853    2.446095    12.268620    -6.242781    35.853916    17.582319    42.980427    -14.134838    1.750401    31.230038    -27.542690    -3.886189    37.705471    19.321871    -2.638988    -4.804882    -18.456610    40.363354    -20.669159    7.015673    -30.924448    50.585148    0.000000    0.000000    0.000000    -22.586311    -15.493676    -24.656061    10.406586    29.666870    -19.090324    7.192262    6.721923    -8.049894    0.000000    0.000000    0.000000    
-13.665429    152.471741    -97.515640    1.609651    -6.384380    46.500706    -3.072730    -0.100340    -1.984845    -1.158388    2.115643    -0.640588    -1.446414    5.324643    -19.155579    16.870394    1.327368    -17.682575    4.963020    7.354172    -15.906583    -23.488987    11.439285    -60.908577    -6.834376    -29.987501    -110.297180    -15.656102    -36.007912    -19.195560    2.459660    12.258636    -6.282160    35.827850    17.607765    43.009510    -14.186090    1.703499    31.227640    -27.520262    -3.905393    37.686417    19.328798    -2.652940    -4.796803    -18.432306    40.364155    -20.712498    6.991848    -30.926746    50.569080    0.000000    0.000000    0.000000    -22.598391    -15.491934    -24.645746    10.431741    29.693714    -19.110125    7.199850    6.691200    -8.091958    0.000000    0.000000    0.000000    
-13.678675    152.470795    -97.498596    1.614991    -6.368573    46.532265    -3.084644    -0.110255    -1.985206    -1.131335    2.129429    -0.641040    -1.482434    5.305884    -19.172119    16.862801    1.327150    -17.696987    4.876377    7.340098    -15.859406    -23.481237    11.376112    -60.615345    -6.675003    -30.395018    -109.743019    -16.310606    -35.971695    -19.690729    2.418676    12.244704    -6.292078    35.864876    17.568520    43.021019    -14.173330    1.718895    31.219908    -27.541393    -3.903513    37.690781    19.323639    -2.663896    -4.790595    -18.412947    40.350002    -20.732174    6.974800    -30.919876    50.554131    0.000000    0.000000    0.000000    -22.622614    -15.499363    -24.640200    10.449020    29.725590    -19.137104    7.213687    6.667599    -8.096921    0.000000    0.000000    0.000000    
-13.696625    152.472870    -97.485497    1.614111    -6.357084    46.558422    -3.079884    -0.126427    -1.977366    -1.141385    2.160780    -0.637766    -1.472566    5.271650    -19.189920    16.846937    1.331174    -17.718878    4.844280    7.328647    -15.820076    -23.508358    11.290562    -60.335926    -6.457865    -30.829437    -109.168846    -16.626053    -35.976994    -19.907761    2.416365    12.221218    -6.299345    35.872749    17.541672    43.015221    -14.168355    1.703574    31.226744    -27.579910    -3.931526    37.684422    19.323580    -2.687221    -4.771382    -18.382051    40.360195    -20.759365    6.949239    -30.913822    50.526470    0.000000    0.000000    0.000000    -22.639418    -15.507895    -24.620300    10.482880    29.749353    -19.161036    7.223301    6.648269    -8.122696    0.000000    0.000000    0.000000    
-13.713651    152.474564    -97.470940    1.613912    -6.352992    46.581043    -3.083579    -0.121241    -1.964933    -1.114119    2.161340    -0.634160    -1.479786    5.274047    -19.204079    16.820675    1.295887    -17.731218    4.783813    7.319600    -15.783817    -23.523144    11.228449    -60.057003    -6.190881    -31.289417    -108.558945    -16.887205    -35.964672    -20.093946    2.378797    12.203426    -6.319986    35.885632    17.552849    43.018410    -14.190903    1.677697    31.220377    -27.579874    -3.948956    37.674007    19.332623    -2.702702    -4.759247    -18.376268    40.364220    -20.762537    6.934529    -30.902447    50.515232    0.000000    0.000000    0.000000    -22.650745    -15.513547    -24.615055    10.503584    29.775972    -19.172596    7.227982    6.642094    -8.135873    0.000000    0.000000    0.000000    
-13.729165    152.477692    -97.459770    1.609338    -6.341703    46.595158    -3.068614    -0.133403    -1.949446    -1.134849    2.177746    -0.628312    -1.463953    5.259188    -19.218252    16.804272    1.282836    -17.747738    4.755015    7.312233    -15.731111    -23.615423    11.093963    -59.789028    -6.035695    -31.606438    -107.973923    -17.011675    -35.991776    -20.143620    2.375865    12.191200    -6.345917    35.894592    17.531204    43.035458    -14.173632    1.681482    31.216366    -27.593477    -3.952455    37.662754    19.340061    -2.720215    -4.753530    -18.372974    40.359234    -20.774370    6.919010    -30.887030    50.502644    0.000000    0.000000    0.000000    -22.659586    -15.532761    -24.633373    10.496360    29.806973    -19.178263    7.258724    6.645180    -8.132850    0.000000    0.000000    0.000000    
-13.746023    152.480728    -97.450661    1.599698    -6.330852    46.606655    -3.063899    -0.141823    -1.931750    -1.121439    2.178594    -0.622590    -1.477261    5.271973    -19.236847    16.802893    1.251564    -17.761709    4.702465    7.301595    -15.690259    -23.712431    10.999658    -59.516846    -5.788920    -31.984324    -107.324020    -17.254869    -35.939224    -20.325418    2.353380    12.181212    -6.363625    35.900204    17.534555    43.041683    -14.195123    1.673767    31.205086    -27.564211    -3.941853    37.651474    19.354492    -2.742486    -4.742288    -18.391472    40.355618    -20.775557    6.906624    -30.879286    50.516640    0.000000    0.000000    0.000000    -22.667101    -15.556706    -24.655811    10.496322    29.839581    -19.163616    7.263143    6.650559    -8.148337    0.000000    0.000000    0.000000    
